<svg width="16" height="16" viewBox="0 0 16 16" fill="none" xmlns="http://www.w3.org/2000/svg">
<g id="Icon/Admin">
<g id="Vector">
<path d="M8.00006 14.3996C7.9335 14.4001 7.86776 14.385 7.80805 14.3556L5.8599 13.3835C4.93695 12.9246 4.16103 12.2162 3.62014 11.3388C3.07925 10.4614 2.79502 9.44991 2.79968 8.41916V3.5628C2.79966 3.45066 2.84365 3.34298 2.9222 3.26293C3.00075 3.18289 3.10758 3.13687 3.21971 3.13477H4.60781C5.17564 3.13178 5.7308 2.96662 6.20793 2.65874L7.75604 1.66667C7.82477 1.62287 7.90457 1.59961 7.98606 1.59961C8.06755 1.59961 8.14735 1.62287 8.21608 1.66667L9.76419 2.65874C10.2413 2.96662 10.7965 3.13178 11.3643 3.13477H12.7524C12.8103 3.13207 12.8681 3.14113 12.9224 3.16143C12.9766 3.18173 13.0262 3.21282 13.0681 3.25284C13.11 3.29286 13.1433 3.34097 13.1661 3.39425C13.1888 3.44753 13.2005 3.50487 13.2004 3.5628V8.41916C13.2036 9.45008 12.9178 10.4613 12.3755 11.338C11.8332 12.2148 11.0561 12.922 10.1322 13.3795L8.18407 14.3516C8.12711 14.3812 8.06422 14.3976 8.00006 14.3996ZM3.64774 3.99884V8.41916C3.6453 9.2913 3.88723 10.1467 4.34609 10.8884C4.80495 11.63 5.46241 12.2283 6.24393 12.6155L8.00006 13.4955L9.75619 12.6155C10.5377 12.2283 11.1952 11.63 11.654 10.8884C12.1129 10.1467 12.3548 9.2913 12.3524 8.41916V3.99884H11.3923C10.6558 3.99878 9.93492 3.78627 9.31616 3.38679L8.00006 2.53073L6.68396 3.37879C6.06606 3.78109 5.34513 3.9964 4.60781 3.99884H3.64774Z" fill="#1C1C1E"/>
<path d="M8.00004 8.31919C7.62027 8.31919 7.24903 8.20657 6.93326 7.99559C6.6175 7.7846 6.37139 7.48471 6.22606 7.13385C6.08073 6.78299 6.0427 6.39692 6.11679 6.02445C6.19088 5.65198 6.37376 5.30984 6.64229 5.0413C6.91083 4.77277 7.25296 4.58989 7.62544 4.5158C7.99791 4.44171 8.38398 4.47974 8.73484 4.62507C9.0857 4.7704 9.38559 5.01651 9.59658 5.33227C9.80756 5.64804 9.92018 6.01928 9.92018 6.39905C9.91912 6.90798 9.71648 7.39576 9.35661 7.75562C8.99675 8.11549 8.50897 8.31813 8.00004 8.31919ZM8.00004 5.33097C7.78879 5.33097 7.58229 5.39361 7.40664 5.51097C7.231 5.62833 7.0941 5.79515 7.01326 5.99031C6.93242 6.18548 6.91127 6.40023 6.95248 6.60742C6.99369 6.81461 7.09542 7.00492 7.24479 7.15429C7.39416 7.30367 7.58448 7.40539 7.79167 7.4466C7.99885 7.48781 8.21361 7.46666 8.40877 7.38582C8.60394 7.30498 8.77075 7.16808 8.88811 6.99244C9.00547 6.8168 9.06811 6.61029 9.06811 6.39905C9.06706 6.11647 8.95406 5.84583 8.75387 5.64639C8.55368 5.44695 8.28262 5.33497 8.00004 5.33497V5.33097Z" fill="#1C1C1E"/>
<path d="M10.5601 10.6674H9.70807C9.70702 10.4417 9.61691 10.2256 9.45735 10.0661C9.29778 9.9065 9.08167 9.8164 8.85601 9.81534H7.14388C6.9179 9.81534 6.70118 9.90511 6.54138 10.0649C6.38159 10.2247 6.29182 10.4414 6.29182 10.6674H5.43976C5.43976 10.2154 5.6193 9.78199 5.93888 9.46241C6.25847 9.14282 6.69192 8.96328 7.14388 8.96328H8.85201C9.30434 8.96328 9.7382 9.14269 10.0584 9.46216C10.3786 9.78163 10.5591 10.2151 10.5601 10.6674Z" fill="#1C1C1E"/>
</g>
</g>
</svg>
