<svg width="16" height="16" viewBox="0 0 16 16" fill="none" xmlns="http://www.w3.org/2000/svg">
<g id="Icon/Email">
<path id="Union" fill-rule="evenodd" clip-rule="evenodd" d="M2.725 3.5C2.04802 3.5 1.5 4.0515 1.5 4.725V11.475C1.5 12.1526 2.05214 12.7 2.725 12.7H13.275C13.9461 12.7 14.5 12.1549 14.5 11.475V4.725C14.5 4.05278 13.9542 3.5 13.275 3.5H2.725ZM7.27433 8.57758L3.12488 4.45H12.8751L8.72479 8.57846C8.53104 8.77221 8.27398 8.87867 8 8.87867C7.72607 8.87867 7.46881 8.77204 7.27433 8.57758ZM2.45 11.082V5.11865L5.44911 8.10196L2.45 11.082ZM13.55 11.082L10.5509 8.10196L13.55 5.11865V11.082ZM9.87734 8.77194L12.8745 11.75H3.12554L6.12266 8.77194L6.60358 9.25033C6.97647 9.62316 7.47271 9.82868 8 9.82868C8.52726 9.82868 9.02363 9.62306 9.39584 9.25091L9.87734 8.77194Z" fill="#1C1C1E"/>
</g>
</svg>
