<svg width="16" height="17" viewBox="0 0 16 17" fill="none" xmlns="http://www.w3.org/2000/svg">
<g clip-path="url(#clip0_134_1515)">
<path d="M12 1.58333L12 2.58333L13.5 2.58333C14.3281 2.58333 15 3.2552 15 4.08333L15 5.58333L1 5.58333L1 4.08333C1 3.2552 1.67187 2.58333 2.5 2.58333L4 2.58333L4 1.58333C4 1.0302 4.44687 0.583327 5 0.583327C5.55313 0.583327 6 1.0302 6 1.58333L6 2.58333L10 2.58333L10 1.58333C10 1.0302 10.4469 0.583328 11 0.583328C11.5531 0.583328 12 1.0302 12 1.58333ZM0.999999 6.58333L15 6.58333L15 15.0833C15 15.9115 14.3281 16.5833 13.5 16.5833L2.5 16.5833C1.67187 16.5833 0.999999 15.9115 0.999999 15.0833L0.999999 6.58333Z" fill="#717171"/>
</g>
<defs>
<clipPath id="clip0_134_1515">
<rect width="16" height="15.8333" fill="white" transform="matrix(-1 -8.74228e-08 -8.74228e-08 1 16 0.583328)"/>
</clipPath>
</defs>
</svg>
