<svg width="16" height="17" viewBox="0 0 16 17" fill="none" xmlns="http://www.w3.org/2000/svg">
<g clip-path="url(#clip0_134_1520)">
<path d="M8 0.583328C5.87827 0.583327 3.84344 1.42618 2.34315 2.92647C0.842854 4.42676 -5.13895e-07 6.4616 -6.99382e-07 8.58333C-8.8487e-07 10.7051 0.842853 12.7399 2.34314 14.2402C3.84343 15.7405 5.87827 16.5833 8 16.5833C10.1217 16.5833 12.1566 15.7405 13.6569 14.2402C15.1571 12.7399 16 10.7051 16 8.58333C16 6.4616 15.1571 4.42676 13.6569 2.92647C12.1566 1.42618 10.1217 0.583328 8 0.583328ZM8.75 4.33333L8.75 8.58333C8.75 8.83333 8.625 9.0677 8.41562 9.20833L5.41562 11.2083C5.07187 11.4396 4.60625 11.3458 4.375 10.999C4.14375 10.6521 4.2375 10.1896 4.58437 9.95833L7.25 8.18333L7.25 4.33333C7.25 3.9177 7.58438 3.58333 8 3.58333C8.41562 3.58333 8.75 3.9177 8.75 4.33333Z" fill="#717171"/>
</g>
<defs>
<clipPath id="clip0_134_1520">
<rect width="16" height="15.8333" fill="white" transform="matrix(-1 -8.74228e-08 -8.74228e-08 1 16 0.583328)"/>
</clipPath>
</defs>
</svg>
