<svg width="19" height="17" viewBox="0 0 19 17" fill="none" xmlns="http://www.w3.org/2000/svg">
<g clip-path="url(#clip0_156_1212)">
<path d="M18.4937 8.56763C18.4937 9.13013 18.025 9.57075 17.4937 9.57075H16.4937L16.5156 14.577C16.5156 14.6614 16.5094 14.7458 16.5 14.8301V15.3333C16.5 16.0239 15.9406 16.5833 15.25 16.5833H14.75C14.7156 16.5833 14.6813 16.5833 14.6469 16.5801C14.6031 16.5833 14.5594 16.5833 14.5156 16.5833H13.5H12.75C12.0594 16.5833 11.5 16.0239 11.5 15.3333V14.5833V12.5833C11.5 12.0301 11.0531 11.5833 10.5 11.5833H8.5C7.94688 11.5833 7.5 12.0301 7.5 12.5833V14.5833V15.3333C7.5 16.0239 6.94063 16.5833 6.25 16.5833H5.5H4.50313C4.45625 16.5833 4.40937 16.5801 4.3625 16.577C4.325 16.5801 4.2875 16.5833 4.25 16.5833H3.75C3.05938 16.5833 2.5 16.0239 2.5 15.3333V11.8333C2.5 11.8051 2.5 11.7739 2.50312 11.7458V9.57075H1.5C0.9375 9.57075 0.5 9.13325 0.5 8.56763C0.5 8.28638 0.59375 8.03638 0.8125 7.81763L8.825 0.833252C9.04375 0.614502 9.29375 0.583252 9.5125 0.583252C9.73125 0.583252 9.98125 0.645752 10.1687 0.802002L18.15 7.81763C18.4 8.03638 18.525 8.28638 18.4937 8.56763Z" fill="#C000EF"/>
<path d="M18.4937 8.56763C18.4937 9.13013 18.025 9.57075 17.4937 9.57075H16.4937L16.5156 14.577C16.5156 14.6614 16.5094 14.7458 16.5 14.8301V15.3333C16.5 16.0239 15.9406 16.5833 15.25 16.5833H14.75C14.7156 16.5833 14.6813 16.5833 14.6469 16.5801C14.6031 16.5833 14.5594 16.5833 14.5156 16.5833H13.5H12.75C12.0594 16.5833 11.5 16.0239 11.5 15.3333V14.5833V12.5833C11.5 12.0301 11.0531 11.5833 10.5 11.5833H8.5C7.94688 11.5833 7.5 12.0301 7.5 12.5833V14.5833V15.3333C7.5 16.0239 6.94063 16.5833 6.25 16.5833H5.5H4.50313C4.45625 16.5833 4.40937 16.5801 4.3625 16.577C4.325 16.5801 4.2875 16.5833 4.25 16.5833H3.75C3.05938 16.5833 2.5 16.0239 2.5 15.3333V11.8333C2.5 11.8051 2.5 11.7739 2.50312 11.7458V9.57075H1.5C0.9375 9.57075 0.5 9.13325 0.5 8.56763C0.5 8.28638 0.59375 8.03638 0.8125 7.81763L8.825 0.833252C9.04375 0.614502 9.29375 0.583252 9.5125 0.583252C9.73125 0.583252 9.98125 0.645752 10.1687 0.802002L18.15 7.81763C18.4 8.03638 18.525 8.28638 18.4937 8.56763Z" fill="white" fill-opacity="0.2"/>
</g>
<defs>
<clipPath id="clip0_156_1212">
<rect width="18" height="15.8333" fill="white" transform="translate(0.5 0.583252)"/>
</clipPath>
</defs>
</svg>
