<svg width="19" height="16" viewBox="0 0 19 16" fill="none" xmlns="http://www.w3.org/2000/svg">
<g clip-path="url(#clip0_144_1500)">
<path d="M18.4937 7.98438C18.4937 8.54688 18.025 8.9875 17.4937 8.9875H16.4937L16.5156 13.9937C16.5156 14.0781 16.5094 14.1625 16.5 14.2469V14.75C16.5 15.4406 15.9406 16 15.25 16H14.75C14.7156 16 14.6813 16 14.6469 15.9969C14.6031 16 14.5594 16 14.5156 16H13.5H12.75C12.0594 16 11.5 15.4406 11.5 14.75V14V12C11.5 11.4469 11.0531 11 10.5 11H8.5C7.94688 11 7.5 11.4469 7.5 12V14V14.75C7.5 15.4406 6.94063 16 6.25 16H5.5H4.50313C4.45625 16 4.40937 15.9969 4.3625 15.9937C4.325 15.9969 4.2875 16 4.25 16H3.75C3.05938 16 2.5 15.4406 2.5 14.75V11.25C2.5 11.2219 2.5 11.1906 2.50312 11.1625V8.9875H1.5C0.9375 8.9875 0.5 8.55 0.5 7.98438C0.5 7.70312 0.59375 7.45312 0.8125 7.23438L8.825 0.25C9.04375 0.03125 9.29375 0 9.5125 0C9.73125 0 9.98125 0.0625 10.1687 0.21875L18.15 7.23438C18.4 7.45312 18.525 7.70312 18.4937 7.98438Z" fill="#717171"/>
</g>
<defs>
<clipPath id="clip0_144_1500">
<rect width="18" height="15.8333" fill="white" transform="translate(0.5)"/>
</clipPath>
</defs>
</svg>
