<svg width="16" height="17" viewBox="0 0 16 17" fill="none" xmlns="http://www.w3.org/2000/svg">
<path d="M8 1C10.1217 1 12.1566 1.84285 13.6569 3.34315C15.1571 4.84344 16 6.87827 16 9C16 11.1217 15.1571 13.1566 13.6569 14.6569C12.1566 16.1571 10.1217 17 8 17C5.87827 17 3.84344 16.1571 2.34315 14.6569C0.842855 13.1566 0 11.1217 0 9C0 6.87827 0.842855 4.84344 2.34315 3.34315C3.84344 1.84285 5.87827 1 8 1ZM7.25 4.75V9C7.25 9.25 7.375 9.48438 7.58437 9.625L10.5844 11.625C10.9281 11.8562 11.3938 11.7625 11.625 11.4156C11.8562 11.0687 11.7625 10.6062 11.4156 10.375L8.75 8.6V4.75C8.75 4.33437 8.41562 4 8 4C7.58437 4 7.25 4.33437 7.25 4.75Z" fill="#C000EF"/>
<path d="M8 1C10.1217 1 12.1566 1.84285 13.6569 3.34315C15.1571 4.84344 16 6.87827 16 9C16 11.1217 15.1571 13.1566 13.6569 14.6569C12.1566 16.1571 10.1217 17 8 17C5.87827 17 3.84344 16.1571 2.34315 14.6569C0.842855 13.1566 0 11.1217 0 9C0 6.87827 0.842855 4.84344 2.34315 3.34315C3.84344 1.84285 5.87827 1 8 1ZM7.25 4.75V9C7.25 9.25 7.375 9.48438 7.58437 9.625L10.5844 11.625C10.9281 11.8562 11.3938 11.7625 11.625 11.4156C11.8562 11.0687 11.7625 10.6062 11.4156 10.375L8.75 8.6V4.75C8.75 4.33437 8.41562 4 8 4C7.58437 4 7.25 4.33437 7.25 4.75Z" fill="white" fill-opacity="0.5"/>
</svg>
