<svg width="12" height="17" viewBox="0 0 12 17" fill="none" xmlns="http://www.w3.org/2000/svg">
<path d="M12 7C12 9.73125 8.34375 14.5938 6.74062 16.6C6.35625 17.0781 5.64375 17.0781 5.25938 16.6C3.65625 14.5938 0 9.73125 0 7C0 3.6875 2.6875 1 6 1C9.3125 1 12 3.6875 12 7Z" fill="#C000EF"/>
<path d="M12 7C12 9.73125 8.34375 14.5938 6.74062 16.6C6.35625 17.0781 5.64375 17.0781 5.25938 16.6C3.65625 14.5938 0 9.73125 0 7C0 3.6875 2.6875 1 6 1C9.3125 1 12 3.6875 12 7Z" fill="white" fill-opacity="0.5"/>
</svg>
