<svg width="18" height="17" viewBox="0 0 18 17" fill="none" xmlns="http://www.w3.org/2000/svg">
<g clip-path="url(#clip0_134_1506)">
<path d="M9.74062 16.1833C11.3438 14.1771 15 9.31459 15 6.58334C15 3.27084 12.3125 0.583336 9 0.583336C5.6875 0.583336 3 3.27084 3 6.58334C3 9.31459 6.65625 14.1771 8.25938 16.1833C8.64375 16.6615 9.35625 16.6615 9.74062 16.1833ZM9 4.58334C9.53043 4.58334 10.0391 4.79405 10.4142 5.16912C10.7893 5.5442 11 6.0529 11 6.58334C11 7.11377 10.7893 7.62248 10.4142 7.99755C10.0391 8.37262 9.53043 8.58334 9 8.58334C8.46957 8.58334 7.96086 8.37262 7.58579 7.99755C7.21071 7.62248 7 7.11377 7 6.58334C7 6.0529 7.21071 5.5442 7.58579 5.16912C7.96086 4.79405 8.46957 4.58334 9 4.58334Z" fill="#717171"/>
</g>
<defs>
<clipPath id="clip0_134_1506">
<rect width="18" height="15.8333" fill="white" transform="translate(0 0.583336)"/>
</clipPath>
</defs>
</svg>
