<svg width="19" height="16" viewBox="0 0 19 16" fill="none" xmlns="http://www.w3.org/2000/svg">
<g clip-path="url(#clip0_144_1504)">
<path d="M17.0969 0.196854C17.35 0.384354 17.5 0.684354 17.5 0.999979V3.24998V11.5C17.5 12.8812 16.1562 14 14.5 14C12.8438 14 11.5 12.8812 11.5 11.5C11.5 10.1187 12.8438 8.99998 14.5 8.99998C14.85 8.99998 15.1875 9.04998 15.5 9.14373V4.59373L7.5 6.99373V13.5C7.5 14.8812 6.15625 16 4.5 16C2.84375 16 1.5 14.8812 1.5 13.5C1.5 12.1187 2.84375 11 4.5 11C4.85 11 5.1875 11.05 5.5 11.1437V6.24998V3.99998C5.5 3.55935 5.79063 3.16873 6.2125 3.0406L16.2125 0.0406036C16.5156 -0.0500214 16.8438 0.00622866 17.0969 0.196854Z" fill="#717171"/>
</g>
<defs>
<clipPath id="clip0_144_1504">
<rect width="18" height="15.8333" fill="white" transform="translate(0.5)"/>
</clipPath>
</defs>
</svg>
