<svg width="10" height="17" viewBox="0 0 10 17" fill="none" xmlns="http://www.w3.org/2000/svg">
<g clip-path="url(#clip0_156_1349)">
<path d="M3.49999 2.08334C3.49999 1.68552 3.65802 1.30399 3.93933 1.02268C4.22063 0.741379 4.60216 0.583344 4.99999 0.583344C5.39781 0.583344 5.77934 0.741379 6.06065 1.02268C6.34195 1.30399 6.49999 1.68552 6.49999 2.08334C6.49999 2.48117 6.34195 2.8627 6.06065 3.144C5.77934 3.42531 5.39781 3.58334 4.99999 3.58334C4.60216 3.58334 4.22063 3.42531 3.93933 3.144C3.65802 2.8627 3.49999 2.48117 3.49999 2.08334ZM4.74999 11.5833V15.5833C4.74999 16.1365 4.30311 16.5833 3.74999 16.5833C3.19686 16.5833 2.74999 16.1365 2.74999 15.5833V8.61147L1.85624 10.099C1.57186 10.5708 0.956238 10.724 0.484363 10.4396C0.0124879 10.1552 -0.140637 9.53959 0.143738 9.06772L1.96561 6.03647C2.50936 5.13334 3.48436 4.58022 4.53749 4.58022H5.46561C6.51874 4.58022 7.49374 5.13334 8.03749 6.03647L9.85936 9.06772C10.1437 9.53959 9.99061 10.1552 9.51874 10.4396C9.04686 10.724 8.43124 10.5708 8.14686 10.099L7.24999 8.61147V15.5833C7.24999 16.1365 6.80311 16.5833 6.24999 16.5833C5.69686 16.5833 5.24999 16.1365 5.24999 15.5833V11.5833H4.74999Z" fill="#C000EF"/>
<path d="M3.49999 2.08334C3.49999 1.68552 3.65802 1.30399 3.93933 1.02268C4.22063 0.741379 4.60216 0.583344 4.99999 0.583344C5.39781 0.583344 5.77934 0.741379 6.06065 1.02268C6.34195 1.30399 6.49999 1.68552 6.49999 2.08334C6.49999 2.48117 6.34195 2.8627 6.06065 3.144C5.77934 3.42531 5.39781 3.58334 4.99999 3.58334C4.60216 3.58334 4.22063 3.42531 3.93933 3.144C3.65802 2.8627 3.49999 2.48117 3.49999 2.08334ZM4.74999 11.5833V15.5833C4.74999 16.1365 4.30311 16.5833 3.74999 16.5833C3.19686 16.5833 2.74999 16.1365 2.74999 15.5833V8.61147L1.85624 10.099C1.57186 10.5708 0.956238 10.724 0.484363 10.4396C0.0124879 10.1552 -0.140637 9.53959 0.143738 9.06772L1.96561 6.03647C2.50936 5.13334 3.48436 4.58022 4.53749 4.58022H5.46561C6.51874 4.58022 7.49374 5.13334 8.03749 6.03647L9.85936 9.06772C10.1437 9.53959 9.99061 10.1552 9.51874 10.4396C9.04686 10.724 8.43124 10.5708 8.14686 10.099L7.24999 8.61147V15.5833C7.24999 16.1365 6.80311 16.5833 6.24999 16.5833C5.69686 16.5833 5.24999 16.1365 5.24999 15.5833V11.5833H4.74999Z" fill="white" fill-opacity="0.5"/>
</g>
<defs>
<clipPath id="clip0_156_1349">
<rect width="10" height="15.8333" fill="white" transform="translate(0 0.583344)"/>
</clipPath>
</defs>
</svg>
