<svg width="11" height="17" viewBox="0 0 11 17" fill="none" xmlns="http://www.w3.org/2000/svg">
<g clip-path="url(#clip0_156_1208)">
<path d="M3.99999 2.08325C3.99999 1.68543 4.15802 1.3039 4.43933 1.02259C4.72063 0.741287 5.10216 0.583252 5.49999 0.583252C5.89781 0.583252 6.27934 0.741287 6.56065 1.02259C6.84195 1.3039 6.99999 1.68543 6.99999 2.08325C6.99999 2.48108 6.84195 2.86261 6.56065 3.14391C6.27934 3.42522 5.89781 3.58325 5.49999 3.58325C5.10216 3.58325 4.72063 3.42522 4.43933 3.14391C4.15802 2.86261 3.99999 2.48108 3.99999 2.08325ZM5.24999 11.5833V15.5833C5.24999 16.1364 4.80311 16.5833 4.24999 16.5833C3.69686 16.5833 3.24999 16.1364 3.24999 15.5833V8.61138L2.35624 10.0989C2.07186 10.5708 1.45624 10.7239 0.984363 10.4395C0.512488 10.1551 0.359363 9.5395 0.643738 9.06763L2.46561 6.03638C3.00936 5.13325 3.98436 4.58013 5.03749 4.58013H5.96561C7.01874 4.58013 7.99374 5.13325 8.53749 6.03638L10.3594 9.06763C10.6437 9.5395 10.4906 10.1551 10.0187 10.4395C9.54686 10.7239 8.93124 10.5708 8.64686 10.0989L7.74999 8.61138V15.5833C7.74999 16.1364 7.30311 16.5833 6.74999 16.5833C6.19686 16.5833 5.74999 16.1364 5.74999 15.5833V11.5833H5.24999Z" fill="#C000EF"/>
<path d="M3.99999 2.08325C3.99999 1.68543 4.15802 1.3039 4.43933 1.02259C4.72063 0.741287 5.10216 0.583252 5.49999 0.583252C5.89781 0.583252 6.27934 0.741287 6.56065 1.02259C6.84195 1.3039 6.99999 1.68543 6.99999 2.08325C6.99999 2.48108 6.84195 2.86261 6.56065 3.14391C6.27934 3.42522 5.89781 3.58325 5.49999 3.58325C5.10216 3.58325 4.72063 3.42522 4.43933 3.14391C4.15802 2.86261 3.99999 2.48108 3.99999 2.08325ZM5.24999 11.5833V15.5833C5.24999 16.1364 4.80311 16.5833 4.24999 16.5833C3.69686 16.5833 3.24999 16.1364 3.24999 15.5833V8.61138L2.35624 10.0989C2.07186 10.5708 1.45624 10.7239 0.984363 10.4395C0.512488 10.1551 0.359363 9.5395 0.643738 9.06763L2.46561 6.03638C3.00936 5.13325 3.98436 4.58013 5.03749 4.58013H5.96561C7.01874 4.58013 7.99374 5.13325 8.53749 6.03638L10.3594 9.06763C10.6437 9.5395 10.4906 10.1551 10.0187 10.4395C9.54686 10.7239 8.93124 10.5708 8.64686 10.0989L7.74999 8.61138V15.5833C7.74999 16.1364 7.30311 16.5833 6.74999 16.5833C6.19686 16.5833 5.74999 16.1364 5.74999 15.5833V11.5833H5.24999Z" fill="white" fill-opacity="0.2"/>
</g>
<defs>
<clipPath id="clip0_156_1208">
<rect width="10" height="15.8333" fill="white" transform="translate(0.5 0.583252)"/>
</clipPath>
</defs>
</svg>
