<svg width="19" height="16" viewBox="0 0 19 16" fill="none" xmlns="http://www.w3.org/2000/svg">
<g clip-path="url(#clip0_144_1512)">
<path d="M9.5 0C11.6217 0 13.6566 0.842855 15.1569 2.34315C16.6571 3.84344 17.5 5.87827 17.5 8C17.5 10.1217 16.6571 12.1566 15.1569 13.6569C13.6566 15.1571 11.6217 16 9.5 16C7.37827 16 5.34344 15.1571 3.84315 13.6569C2.34285 12.1566 1.5 10.1217 1.5 8C1.5 5.87827 2.34285 3.84344 3.84315 2.34315C5.34344 0.842855 7.37827 0 9.5 0ZM8.75 3.75V8C8.75 8.25 8.875 8.48438 9.08437 8.625L12.0844 10.625C12.4281 10.8562 12.8938 10.7625 13.125 10.4156C13.3562 10.0687 13.2625 9.60625 12.9156 9.375L10.25 7.6V3.75C10.25 3.33437 9.91562 3 9.5 3C9.08437 3 8.75 3.33437 8.75 3.75Z" fill="#717171"/>
</g>
<defs>
<clipPath id="clip0_144_1512">
<rect width="18" height="15.8333" fill="white" transform="translate(0.5)"/>
</clipPath>
</defs>
</svg>
