<svg width="19" height="16" viewBox="0 0 19 16" fill="none" xmlns="http://www.w3.org/2000/svg">
<g clip-path="url(#clip0_144_1516)">
<path d="M9.5 8C10.5609 8 11.5783 7.57857 12.3284 6.82843C13.0786 6.07828 13.5 5.06087 13.5 4C13.5 2.93913 13.0786 1.92172 12.3284 1.17157C11.5783 0.421427 10.5609 0 9.5 0C8.43913 0 7.42172 0.421427 6.67157 1.17157C5.92143 1.92172 5.5 2.93913 5.5 4C5.5 5.06087 5.92143 6.07828 6.67157 6.82843C7.42172 7.57857 8.43913 8 9.5 8ZM8.07188 9.5C4.99375 9.5 2.5 11.9937 2.5 15.0719C2.5 15.5844 2.91563 16 3.42813 16H15.5719C16.0844 16 16.5 15.5844 16.5 15.0719C16.5 11.9937 14.0063 9.5 10.9281 9.5H8.07188Z" fill="#717171"/>
</g>
<defs>
<clipPath id="clip0_144_1516">
<rect width="18" height="15.8333" fill="white" transform="translate(0.5)"/>
</clipPath>
</defs>
</svg>
