<svg width="79" height="60" viewBox="0 0 79 60" fill="none" xmlns="http://www.w3.org/2000/svg">
<path fill-rule="evenodd" clip-rule="evenodd" d="M33 0.5C22.5066 0.5 14 9.00659 14 19.5V22.9578C9.94289 24.2321 7 28.0224 7 32.5V46.1667C7 50.2168 10.2832 53.5 14.3333 53.5C16.3584 53.5 18 51.8584 18 49.8333V43.2291C20.8775 52.6486 29.6387 59.5 40 59.5C49.3559 59.5 57.407 53.9138 61 45.8948V49.8333C61 51.8584 62.6416 53.5 64.6667 53.5C68.7168 53.5 72 50.2168 72 46.1667V32.5C72 28.0224 69.0571 24.2321 65 22.9578V19.5C65 9.00659 56.4934 0.5 46 0.5H33ZM61 22.5V20.5C61 11.1112 53.3888 3.5 44 3.5H35C25.6112 3.5 18 11.1112 18 20.5V22.5V23.5V29.7709C20.8775 20.3514 29.6387 13.5 40 13.5C49.3559 13.5 57.407 19.0862 61 27.1052V23.5V22.5ZM40 55.6667C50.5854 55.6667 59.1666 47.0855 59.1666 36.5C59.1666 25.9146 50.5854 17.3334 40 17.3334C29.4145 17.3334 20.8333 25.9146 20.8333 36.5C20.8333 47.0855 29.4145 55.6667 40 55.6667ZM40.0001 46.0833C45.2928 46.0833 49.5834 41.7927 49.5834 36.5C49.5834 31.2072 45.2928 26.9166 40.0001 26.9166C34.7074 26.9166 30.4167 31.2072 30.4167 36.5C30.4167 41.7927 34.7074 46.0833 40.0001 46.0833ZM40.0001 41.2916C42.6465 41.2916 44.7918 39.1463 44.7918 36.4999C44.7918 33.8536 42.6465 31.7083 40.0001 31.7083C37.3538 31.7083 35.2085 33.8536 35.2085 36.4999C35.2085 39.1463 37.3538 41.2916 40.0001 41.2916Z" fill="white"/>
</svg>
